<?xml version="1.0" encoding="utf-8"?>
<!-- Generator: Adobe Illustrator 16.0.0, SVG Export Plug-In . SVG Version: 6.00 Build 0)  -->
<!DOCTYPE svg PUBLIC "-//W3C//DTD SVG 1.1//EN" "http://www.w3.org/Graphics/SVG/1.1/DTD/svg11.dtd">
<svg version="1.1" id="Layer_1" xmlns="http://www.w3.org/2000/svg" xmlns:xlink="http://www.w3.org/1999/xlink" x="0px" y="0px"
	 width="570px" height="402px" viewBox="0 0 570 402" enable-background="new 0 0 570 402" xml:space="preserve">
<g>
	<polygon fill-rule="evenodd" clip-rule="evenodd" fill="#EE202E" points="1.862,190.79 165.668,190.79 165.668,152.021 
		59.056,152.021 59.056,114.297 157.842,114.297 157.842,75.524 59.056,75.524 59.056,40.415 165.668,40.415 165.668,1.617 
		1.862,1.617 	"/>
	<path fill-rule="evenodd" clip-rule="evenodd" fill="#EE202E" d="M190.418,190.79h105.7c56.808,0,74.164-27.249,74.164-52.908
		c0-24.103-17.845-42.186-45.648-44.792v-0.534c23.07-6.011,37.947-22.795,37.947-44.297c0-24.085-19.105-46.642-66.725-46.642
		H190.418V190.79z M241.035,112.464h49.108c12.913,0,26.562,6.013,26.562,21.747c0,16.764-12.665,21.481-29.041,21.481h-46.63
		V112.464z M241.035,36.741h36.725c20.101,0,31.246,5.229,31.246,20.979c0,14.663-13.149,21.196-35.475,21.196h-32.496V36.741z"/>
	<path fill-rule="evenodd" clip-rule="evenodd" fill="#EE202E" d="M369.42,274.836c-0.646-47.57-38.832-63.775-78.302-63.775
		c-55.352,0-91.408,27.392-91.408,94.89c0,66.979,37.765,94.392,84.096,94.392c46.782,0,84.517-12.702,86.477-65.743h-47.64
		c-1.523,21.901-17.151,28.871-34.345,28.871c-30.433,0-42.229-26.881-42.229-58.772c0-32.848,14.166-56.757,43.522-56.757
		c17.17,0,31.136,6.97,33.482,26.896H369.42z"/>
	<path fill-rule="evenodd" clip-rule="evenodd" fill="#EE202E" d="M427.032,305.74c0-31.64,11.658-57.8,46.839-57.8
		c35.152,0,46.777,26.16,46.777,57.8c0,31.645-11.625,57.793-46.777,57.793C438.69,363.533,427.032,337.385,427.032,305.74
		 M379.585,305.74c0,54.318,27.897,94.652,94.286,94.652c66.339,0,94.275-40.334,94.275-94.652c0-54.325-27.937-94.68-94.275-94.68
		C407.482,211.061,379.585,251.415,379.585,305.74"/>
	<path fill-rule="evenodd" clip-rule="evenodd" fill="#A9B1B6" d="M5.438,228.312c0-7.422,5.942-13.416,13.289-13.416
		c52.448-5.02,103.937-5.02,154.466,0c7.357,0,13.294,5.994,13.294,13.416c5.25,53.982,5.25,106.007,0,156.066
		c0,7.411-5.937,13.402-13.294,13.402c-52.691,3.399-104.172,3.399-154.466,0c-7.347,0-13.289-5.991-13.289-13.402
		C0.659,328.454,0.659,276.418,5.438,228.312"/>
	<path fill-rule="evenodd" clip-rule="evenodd" fill="#A9B1B6" d="M383.146,18.774c0-7.412,5.947-13.402,13.291-13.402
		c52.453-5.02,103.946-5.02,154.484,0c7.303,0,13.302,5.99,13.302,13.402c5.201,53.99,5.201,105.997,0,156.07
		c0,7.411-5.999,13.415-13.302,13.415c-52.716,3.369-104.192,3.369-154.484,0c-7.344,0-13.291-6.003-13.291-13.415
		C378.379,118.912,378.379,66.897,383.146,18.774"/>
</g>
</svg>
